<svg width="398" height="401" viewBox="0 0 398 401" fill="none" xmlns="http://www.w3.org/2000/svg">
<path d="M143.855 194.87C143.855 225.546 168.722 250.413 199.398 250.413C230.073 250.413 254.94 225.546 254.94 194.87C254.94 164.195 230.073 139.328 199.398 139.328C168.722 139.328 143.855 164.195 143.855 194.87Z" fill="#E9DFCB"/>
<path d="M143.855 345.457C143.855 376.133 168.722 401 199.398 401C230.073 401 254.94 376.133 254.94 345.457C254.94 314.782 230.073 289.914 199.398 289.914C168.722 289.914 143.855 314.782 143.855 345.457Z" fill="#E9DFCB"/>
<path d="M143.855 55.5429C143.855 86.2183 168.722 111.086 199.398 111.086C230.073 111.086 254.94 86.2183 254.94 55.5429C254.94 24.8674 230.073 -1.08699e-06 199.398 -2.42786e-06C168.722 -3.76872e-06 143.855 24.8674 143.855 55.5429Z" fill="#E9DFCB"/>
<path d="M214.749 265.765C214.749 296.441 239.617 321.308 270.292 321.308C300.968 321.308 325.835 296.441 325.835 265.765C325.835 235.09 300.968 210.222 270.292 210.222C239.617 210.222 214.749 235.09 214.749 265.765Z" fill="#E9DFCB"/>
<path d="M331.198 277.291C331.198 295.738 346.152 310.692 364.599 310.692C383.046 310.692 398 295.738 398 277.291C398 258.844 383.046 243.89 364.599 243.89C346.152 243.89 331.198 258.844 331.198 277.291Z" fill="#E9DFCB"/>
<path d="M331.198 112.45C331.198 130.897 346.152 145.851 364.599 145.851C383.046 145.851 398 130.897 398 112.45C398 94.0031 383.046 79.0489 364.599 79.0489C346.152 79.0489 331.198 94.0031 331.198 112.45Z" fill="#E9DFCB"/>
<path d="M0.794699 277.291C0.794698 295.738 15.7488 310.692 34.1957 310.692C52.6425 310.692 67.5967 295.738 67.5967 277.291C67.5967 258.844 52.6425 243.89 34.1957 243.89C15.7488 243.89 0.7947 258.844 0.794699 277.291Z" fill="#E9DFCB"/>
<path d="M0.794699 112.45C0.794698 130.897 15.7488 145.851 34.1957 145.851C52.6425 145.851 67.5967 130.897 67.5967 112.45C67.5967 94.0031 52.6425 79.0489 34.1957 79.0489C15.7488 79.0489 0.7947 94.0031 0.794699 112.45Z" fill="#E9DFCB"/>
<path d="M289.627 194.87C289.627 221.493 311.209 243.074 337.831 243.074C364.453 243.074 386.035 221.493 386.035 194.87C386.035 168.248 364.453 146.666 337.831 146.666C311.209 146.666 289.627 168.248 289.627 194.87Z" fill="#E9DFCB"/>
<path d="M12.7594 194.87C12.7594 221.493 34.3411 243.074 60.9634 243.074C87.5858 243.074 109.167 221.493 109.167 194.87C109.167 168.248 87.5858 146.666 60.9634 146.666C34.3411 146.666 12.7594 168.248 12.7594 194.87Z" fill="#E9DFCB"/>
<path d="M214.749 127.755C214.749 158.43 239.617 183.298 270.292 183.298C300.968 183.298 325.835 158.43 325.835 127.755C325.835 97.0793 300.968 72.2119 270.292 72.2119C239.617 72.2119 214.749 97.0793 214.749 127.755Z" fill="#E9DFCB"/>
<path d="M72.0188 265.765C72.0188 296.441 96.8862 321.308 127.562 321.308C158.237 321.308 183.104 296.441 183.104 265.765C183.104 235.09 158.237 210.222 127.562 210.222C96.8862 210.222 72.0188 235.09 72.0188 265.765Z" fill="#E9DFCB"/>
<path d="M72.0188 127.755C72.0188 158.43 96.8862 183.298 127.562 183.298C158.237 183.298 183.104 158.43 183.104 127.755C183.104 97.0793 158.237 72.2119 127.562 72.2119C96.8862 72.2119 72.0188 97.0793 72.0188 127.755Z" fill="#E9DFCB"/>
</svg>
