<svg width="55" height="55" viewBox="0 0 55 55" fill="none" xmlns="http://www.w3.org/2000/svg">
<path d="M54.4883 26.2953C54.1123 22.5669 51.0336 19.1512 47.2942 18.6703C44.1215 18.2631 42.3014 18.5495 39.6013 16.2898C34.3657 11.8967 37.9248 6.19765 33.0992 2.10138C27.5554 -2.59657 19.8625 1.09243 18.9982 8.12622C18.6143 11.2924 18.5882 13.3733 16.0814 15.7985C11.5873 20.1496 6.44828 16.9572 2.52611 21.7498C1.05857 23.547 0.471024 25.5176 0.546751 27.4041C0.525861 27.8298 0.538916 28.2581 0.585919 28.7047C0.961946 32.4332 4.03544 35.8489 7.78004 36.3297C10.9528 36.737 12.7728 36.4506 15.4677 38.7102C20.7086 43.1034 17.152 48.8024 21.975 52.8987C27.5188 57.5966 35.2117 53.9076 36.0761 46.8712C36.4599 43.7051 36.486 41.6241 38.9929 39.1989C43.4869 34.8478 48.6259 38.0402 52.5481 33.2477C54.0157 31.4505 54.6032 29.4799 54.5275 27.5933C54.5484 27.165 54.5353 26.7394 54.4883 26.2927V26.2953ZM35.3344 33.8862C30.4565 40.1291 20.4788 38.4554 18.1077 30.8304C17.7787 29.7794 17.669 28.8177 17.5829 27.8876C17.9119 25.6306 18.0555 23.2842 19.7398 21.1165C24.6177 14.8736 34.5954 16.5473 36.9587 24.1749C37.2825 25.2128 37.3974 26.1666 37.4914 27.0836C37.1623 29.3485 37.0344 31.7132 35.3344 33.8888V33.8862Z" fill="#E1DAC3"/>
</svg>
