<svg width="249" height="115" viewBox="0 0 249 115" fill="none" xmlns="http://www.w3.org/2000/svg">
<path d="M32.8164 52.4902C36.2364 52.4902 38.4464 51.3502 39.5164 46.2102L47.0764 10.5502C48.1464 5.42016 45.7164 4.20016 42.2964 4.20016V3.41016H58.0564V4.20016C54.6364 4.20016 52.4264 5.41016 51.3564 10.5502L47.7164 27.7402H73.8164L77.4564 10.5502C78.5264 5.42016 76.0964 4.20016 72.6764 4.20016V3.41016H88.3664V4.20016C85.0164 4.20016 82.7364 5.41016 81.6664 10.5502L74.1764 46.2102C73.1064 51.3502 75.5364 52.4902 78.8864 52.4902V53.3502H63.1964V52.4902C66.5464 52.4902 68.8264 51.3502 69.8964 46.2102L73.5364 28.9502H47.4364L43.7964 46.2102C42.7264 51.3502 45.1564 52.4902 48.5064 52.4902V53.3502H32.8164V52.4902Z" fill="white"/>
<path d="M80.7662 34.31C83.3362 23.11 92.3162 16.77 99.9462 16.77C107.576 16.77 113.216 24.76 110.646 36.1C108.076 47.44 99.2362 53.93 91.6062 53.93C83.4762 53.93 78.1962 45.73 80.7662 34.32V34.31ZM92.3862 52.85C97.9462 52.78 104.006 46.15 106.296 34.95C108.576 23.9 105.296 17.69 99.2362 17.83C93.3862 17.9 87.1862 24.82 84.9762 35.66C82.7662 46.86 86.4062 52.92 92.3962 52.85H92.3862Z" fill="white"/>
<path d="M115.577 4.28008L115.506 3.50008C118.646 3.14008 121.427 2.57008 124.997 0.0800781L125.497 0.510071L124.217 6.71007L117.017 40.7301C115.657 47.0801 114.167 51.2101 116.447 51.2101C118.447 51.2101 121.507 46.7201 123.297 39.0901L123.866 39.2301C121.586 50.3601 116.947 54.2801 113.527 53.7801C110.387 53.2101 111.107 49.1401 112.457 43.0101L119.517 9.70007C120.587 4.78007 118.807 4.28008 115.597 4.28008H115.577Z" fill="white"/>
<path d="M148.026 53.8C148.316 52.48 148.626 51.18 148.986 49.88C149.636 46.82 149.806 44.94 150.716 40.65L157.916 6.62999L159.196 0.429993L158.696 0C155.126 2.5 152.416 3.07 149.206 3.42L149.276 4.28C152.486 4.28 154.266 4.77999 153.266 9.62999L151.196 19.76C149.916 18.19 147.626 16.91 144.636 16.91C135.006 16.91 125.806 26.04 123.316 37.81C121.466 46.58 123.956 54.07 130.666 54.07C137.376 54.07 144.076 45.08 147.706 36.38L146.206 43.01C144.846 49.21 144.066 53.21 147.206 53.78C147.466 53.82 147.736 53.82 148.016 53.81L148.026 53.8ZM132.456 51.42C127.396 51.42 124.896 44.57 128.036 34.52C132.026 22.18 139.376 17.9 143.796 17.9C148.216 17.9 150.216 21.32 148.936 28.6C146.866 40.01 138.456 51.42 132.466 51.42H132.456Z" fill="white"/>
<path d="M158.766 51.8401C158.846 51.3001 158.906 50.8201 158.926 50.7101C159.176 49.0601 159.316 47.4401 159.666 45.8101C160.036 44.1201 160.446 42.4301 160.806 40.7301L164.376 23.4701L165.736 17.2601L165.166 16.8301C163.636 17.9001 162.266 18.6001 160.956 19.1001C160.956 19.1201 160.956 19.1401 160.956 19.1601C160.866 22.2101 159.976 25.1701 159.336 28.1301C158.126 33.7101 156.986 39.3001 155.846 44.8901C155.396 47.0901 153.636 53.2301 157.326 53.7701C157.666 53.8201 158.016 53.8101 158.366 53.7701C158.476 53.7601 158.646 52.7101 158.776 51.8401H158.766Z" fill="white"/>
<path d="M166.306 3C164.306 3 162.737 4.43 162.597 6.28C162.457 8.35 163.597 9.84999 165.667 9.84999C167.737 9.84999 169.157 8.35 169.377 6.28C169.517 4.43 168.306 3 166.306 3Z" fill="white"/>
<path d="M171.366 26.4601C172.436 21.6101 170.656 21.1101 167.446 21.1101L167.376 20.2501C170.586 19.8901 173.296 19.3201 176.856 16.8301L177.426 17.2601L176.066 23.4701L172.216 41.5101C177.426 26.4601 185.556 16.8301 192.466 16.8301C197.886 16.8301 199.246 21.3901 196.816 29.8101L193.676 40.8601C191.896 47.1401 190.186 51.2001 192.466 51.2701C194.396 51.4101 197.816 47.1301 200.026 39.6501L200.596 39.7901C197.596 50.7701 192.676 54.4101 189.326 53.6301C186.256 52.9201 187.256 48.9201 188.966 42.8601L192.456 30.8801C195.096 21.9701 193.166 19.4001 190.386 19.4001C184.106 19.4001 174.556 32.9501 169.706 53.3501H165.716L171.346 26.4601H171.366Z" fill="white"/>
<path d="M193.156 58.4101C193.156 54.2001 198.006 53.9901 203.286 53.5601C198.646 51.8501 197.156 45.2901 198.726 37.8001C201.226 26.0301 210.346 16.9001 220.046 16.9001C223.186 16.9001 225.176 18.1101 226.536 19.2501L230.456 16.3301L231.096 16.6901L223.036 53.3501C220.826 63.3301 214.546 68.3301 206.916 68.3301C198.216 68.3301 193.156 62.1301 193.156 58.4201V58.4101ZM206.706 67.2601C213.406 67.2601 217.116 61.2001 218.976 53.3501L223.186 35.5901C219.476 44.7901 212.556 53.9201 206.146 54.0601C199.796 54.2001 197.446 55.4901 197.236 58.2001C197.026 62.3401 201.376 67.2601 206.726 67.2601H206.706ZM207.846 51.4201C213.906 51.4201 222.536 39.0801 224.606 27.3901C225.676 21.1801 223.396 17.9001 219.186 17.9001C214.766 17.9001 207.486 22.1101 203.496 34.5201C200.286 44.5801 202.786 51.4201 207.846 51.4201Z" fill="white"/>
<path d="M2.54639 112.73C5.39639 112.73 7.53639 111.38 7.53639 106.45V70.9302C7.53639 66.0102 5.46639 64.6502 2.54639 64.6502V63.7202H37.4964L39.5664 78.4802L38.7064 78.6902C37.0664 69.4902 32.6464 64.9302 25.4364 64.9302H15.6664V88.6102H23.4364C28.1464 88.6102 30.2864 86.5402 30.2864 80.3402H31.2164V98.2402H30.2864C30.2864 92.0402 28.1464 89.8202 23.3664 89.8202H15.6664V106.44C15.6664 111.36 18.1664 112.72 21.6564 112.72V113.65H2.54639V112.72V112.73Z" fill="white"/>
<path d="M59.5965 106.81L59.3865 105.24C58.5265 109.73 54.2565 114.37 47.6865 114.37C41.6265 114.37 37.4165 110.45 37.4165 105.17C37.4165 100.39 40.8365 96.9698 47.1865 96.3998L58.9065 95.5398L58.4065 91.8998C57.5465 85.4098 53.7465 81.1298 48.3265 81.1298C44.1165 81.1298 40.9765 83.7698 39.4065 87.5498L38.4765 87.3398C39.8365 82.2798 45.8465 76.7798 53.1265 76.7798C60.4065 76.7798 64.8965 81.4898 65.9665 89.9698L67.1465 105.73C67.5765 108.8 68.7865 109.72 69.9965 109.72C70.9965 109.72 71.7065 108.86 71.9265 107.65L72.7865 107.72C72.6465 110.79 70.4365 114.21 66.4365 114.21C62.4365 114.21 60.1565 111.29 59.5865 106.79L59.5965 106.81ZM51.4665 110.17C56.0265 110.17 58.8165 106.89 59.1665 103.61L58.1665 96.6198L51.1765 97.1898C46.8265 97.6198 44.6165 100.19 44.6165 103.61C44.6165 107.03 47.1165 110.17 51.4665 110.17Z" fill="white"/>
<path d="M119.146 112.73C122.636 112.73 125.136 111.38 124.496 106.53L122.216 90.2C121.356 84.21 118.866 81.07 114.796 81.07C110.726 81.07 108.236 84.42 107.736 88.2C107.806 88.91 107.876 89.7 107.876 90.48V106.46C107.876 111.38 110.016 112.74 112.866 112.74V113.67H95.4663V112.74C98.2463 112.74 100.246 111.39 100.246 106.46V91.7C100.246 84.78 97.4663 81 92.7563 81C88.8363 81 85.8363 84.28 85.4063 87.7V106.46C85.4063 111.38 87.4063 112.74 90.1863 112.74V113.67H72.7163V112.74C75.5663 112.74 77.7063 111.39 77.7063 106.46V85.28C77.7063 81.79 76.2763 80.64 72.9963 80.57V79.64C76.7763 79.35 81.0563 78.57 84.7663 76.86L85.4063 77.22V84.85C86.8363 80.71 90.8963 76.79 96.1763 76.79C101.456 76.79 105.876 80 107.376 85.92C108.516 81.14 112.516 76.79 118.286 76.79C124.416 76.79 128.626 80.64 129.986 89.98L132.416 106.53C133.126 111.38 135.196 112.73 138.126 112.73V113.66H119.156V112.73H119.146Z" fill="white"/>
<path d="M145.137 61.2402C142.137 61.2402 140.147 63.3102 140.147 66.1602C140.147 69.2302 142.137 71.3702 145.137 71.3702C148.137 71.3702 150.207 69.2302 150.207 66.1602C150.207 63.3102 148.207 61.2402 145.137 61.2402ZM154.207 112.71C151.497 112.59 149.627 111.14 149.627 106.46V77.2103L148.987 76.8602C146.737 77.8902 144.287 78.5802 141.867 79.0302V84.2702C141.907 84.5802 141.917 84.9202 141.917 85.2802V106.47C141.917 111.04 140.067 112.54 137.517 112.71C137.327 112.73 137.137 112.74 136.937 112.74V113.67H154.627V112.74C154.487 112.74 154.347 112.74 154.207 112.72V112.71Z" fill="white"/>
<path d="M153.806 112.73C156.656 112.73 158.796 111.38 158.796 106.45L159.006 69.36C159.006 65.87 157.576 64.65 154.296 64.65V63.7199C158.146 63.4299 162.426 62.6499 166.066 60.9399L166.706 61.2999V106.44C166.706 111.36 168.846 112.72 171.696 112.72V113.65H153.796V112.72L153.806 112.73Z" fill="white"/>
<path d="M178.266 61.2402C175.266 61.2402 173.276 63.3102 173.276 66.1602C173.276 69.2302 175.266 71.3702 178.266 71.3702C181.266 71.3702 183.336 69.2302 183.336 66.1602C183.336 63.3102 181.336 61.2402 178.266 61.2402ZM182.756 106.46V77.2103L182.116 76.8602C179.886 77.8902 177.456 78.5802 175.046 79.0202V106.46C175.046 110.89 173.316 112.43 170.876 112.69C170.606 112.73 170.336 112.73 170.056 112.73V113.66H187.746V112.73C184.816 112.73 182.746 111.38 182.746 106.46H182.756Z" fill="white"/>
<path d="M186.596 95.76C186.596 84.92 194.366 76.79 203.926 76.79C212.416 76.79 217.336 83.14 217.336 90.48H194.156C194.086 90.91 194.086 91.26 194.086 91.69C194.086 101.82 199.076 108.66 206.996 108.59C212.916 108.59 216.836 104.6 217.976 99.25L218.976 99.39C217.696 107.88 211.486 114.37 203.076 114.37C193.096 114.37 186.606 105.88 186.606 95.76H186.596ZM206.706 89.2701C208.846 89.2701 209.626 88.27 209.626 86.06C209.626 82.71 207.916 77.86 203.346 77.86C198.776 77.86 195.076 83.0701 194.216 89.2701H206.696H206.706Z" fill="white"/>
<path d="M220.906 99.4701L221.836 99.2601C223.476 104.18 227.256 113.1 235.246 113.17C239.806 113.17 242.516 110.46 242.596 107.04C242.596 103.55 240.316 101.48 234.606 99.4801L230.326 97.7701C224.616 95.6301 221.196 92.4201 221.266 87.0001C221.406 81.1501 226.896 76.8001 233.886 76.8701C240.516 76.9401 243.446 81.1501 244.866 76.4401L245.866 76.3701L246.796 90.3501L245.796 90.4901C244.366 85.5701 239.946 78.0101 233.746 77.9401C229.756 77.8701 227.256 80.5801 227.256 83.7901C227.256 87.0001 229.686 89.2101 234.746 90.9901L238.956 92.7001C245.446 95.1301 248.586 98.2601 248.446 103.33C248.306 110.46 241.956 114.38 235.606 114.31C228.186 114.17 224.976 110.03 223.196 114.45L222.126 114.52L220.916 99.4701H220.906Z" fill="white"/>
<path d="M28.4964 39.1997C28.4164 36.8097 27.6364 34.5797 26.3764 32.6197C27.7564 30.7897 28.4164 28.4397 28.4264 26.1697C28.4364 24.0297 28.4564 22.0797 27.3364 19.7797C28.0464 18.2997 28.3664 16.3197 28.4264 14.1997C28.6564 6.42971 22.3064 -0.21029 14.5364 0.00970994C14.0064 0.0297099 13.4864 0.0597118 12.9564 0.0897118C11.0164 0.219712 9.09639 0.719715 7.37639 1.63971C0.936393 4.88971 -2.35361 14.0697 1.93639 20.1897C1.99639 20.0997 2.05639 20.0197 2.12639 19.9197V20.4497C2.06639 20.3597 1.99639 20.2797 1.93639 20.1897C0.646391 22.0697 -0.0136072 24.4097 0.0163928 26.7497C-0.00360719 29.0997 0.69639 31.3597 1.89639 33.3197C0.95639 35.1597 0.366387 37.1697 0.346387 39.2697C0.286387 46.1797 5.41639 52.4797 12.4064 53.2997C13.5564 53.4397 14.7064 53.4597 15.8464 53.3497C18.5864 53.0997 21.2264 52.1197 23.3864 50.3097C26.1064 48.0397 27.9964 44.7297 28.4264 41.2097C28.5064 40.5397 28.5264 39.8697 28.5064 39.1997H28.4964ZM13.8664 42.5797C13.7664 45.4797 13.7064 47.5597 13.3464 51.1197C8.59639 50.6797 4.2064 47.3897 2.6764 42.7997C1.7964 40.1297 1.78638 37.2097 2.72638 34.5597C5.32638 37.9597 9.50639 40.1697 13.8564 39.8797C13.8564 39.8797 13.8764 41.9097 13.8564 42.5797H13.8664ZM26.1764 39.1997C26.0364 44.3397 22.8564 48.9597 17.9964 50.5797C17.2364 50.8797 16.3664 51.0497 15.5464 51.0997C15.3364 48.0797 15.3764 44.8497 15.1564 41.7197L15.0364 39.7997L18.8164 39.3897V38.9197L15.0264 38.6497C5.47639 38.2997 0.206388 29.2697 3.13639 20.4597L3.21639 20.1897L3.13639 19.9197C2.22639 16.8297 2.04639 13.7597 2.94639 10.7497C4.38639 6.12972 9.17639 2.81971 13.9364 2.30971C13.9364 3.49971 13.9364 4.56971 13.9164 5.75971L13.8664 13.6597H14.4364C18.8664 13.6897 23.1264 16.2797 25.2164 20.1697C25.2164 20.1797 25.2264 20.1897 25.2364 20.1997C25.2364 20.1997 25.2364 20.1797 25.2164 20.1697C24.4164 21.5097 23.4064 22.7097 22.2164 23.6897C20.7964 24.9397 18.9864 25.7197 17.1964 26.3797C16.8664 26.4997 16.5464 26.6197 16.2264 26.7297C16.1964 26.7397 16.1664 26.7497 16.1264 26.7597C17.4264 27.1197 18.7864 27.5397 20.0464 28.1097C21.6464 28.9497 23.0464 30.1497 24.1564 31.5797C25.6364 33.7897 26.3164 36.5697 26.1764 39.1897V39.1997ZM25.4364 31.3197C25.4364 31.3197 25.4364 31.3397 25.4264 31.3497C25.3264 31.1897 25.2164 31.0397 25.0864 30.8997C23.8464 29.2697 22.2264 27.9297 20.3864 26.9997C20.2864 26.9397 20.1764 26.8897 20.0664 26.8397C20.0064 26.8097 19.9464 26.7797 19.8864 26.7497C22.2664 25.7297 24.3264 23.9397 25.6864 21.7397C26.0264 23.2097 26.2364 24.6597 26.2264 26.1697C26.2364 27.9297 25.9264 29.6297 25.4264 31.3197H25.4364ZM26.0064 17.5397C23.6664 14.0097 20.1964 12.1097 15.4464 11.8697C15.4464 11.8697 15.2864 9.6697 15.2564 8.6897C15.1764 6.5097 15.0564 4.55971 14.9364 2.30971C17.8964 2.30971 20.5664 4.04972 22.5764 5.99972C24.7764 8.13972 26.1364 11.1097 26.2364 14.2097C26.2964 15.7297 26.3864 16.0697 26.0064 17.5497V17.5397Z" fill="white"/>
</svg>
