<svg width="1418" height="728" viewBox="0 0 1418 728" fill="none" xmlns="http://www.w3.org/2000/svg">
<path d="M339.11 295.14C318.52 330.9 280.01 355.03 235.79 355.03C169.93 355.03 116.55 301.64 116.55 235.79C116.55 169.94 169.94 116.55 235.79 116.55C277.64 116.55 314.39 138.16 335.67 170.78L434.63 109.42C392.78 43.71 319.47 0 235.79 0C105.57 0 0 105.57 0 235.79C0 366.01 105.57 471.58 235.79 471.58C321.48 471.58 396.27 425.72 437.55 357.35L339.11 295.14Z" fill="white"/>
<path d="M918.15 0H806.18V471.58H918.15V0Z" fill="white"/>
<path d="M597.3 362.21V0H485.33V362.21V471.58V474.18H750.19V362.21H597.3Z" fill="white"/>
<path d="M1417.32 235.79V51.45L1386.22 73.45C1343.31 28.26 1282.8 0 1215.56 0C1085.34 0 979.77 105.57 979.77 235.79C979.77 366.01 1085.34 471.58 1215.56 471.58C1301.25 471.58 1376.04 425.72 1417.32 357.35L1318.88 295.14C1298.29 330.9 1259.78 355.03 1215.56 355.03C1149.7 355.03 1096.32 301.64 1096.32 235.79C1096.32 169.94 1149.71 116.55 1215.56 116.55C1243.36 116.55 1268.8 126.23 1289.06 142.2L1258.38 163.9L1417.32 235.79Z" fill="white"/>
<path d="M1200.36 637.31C1198.58 635 1196.67 633.03 1194.63 631.41C1192.59 629.79 1190.05 628.25 1186.99 626.78C1183.93 625.32 1181.26 624.16 1178.97 623.32C1176.68 622.47 1173.83 621.51 1170.44 620.43C1157.02 616.27 1149.72 613.96 1148.53 613.49C1141.4 610.72 1136.98 607.63 1135.28 604.24C1134.26 602.08 1133.92 599.92 1134.26 597.76C1134.77 593.45 1137.32 589.75 1141.9 586.67C1146.49 583.58 1151.41 581.43 1156.68 580.2C1158.72 579.73 1160.84 579.5 1163.04 579.5C1168.98 579.2 1174.25 580.12 1178.84 582.28C1180.69 583.15 1183.83 584.73 1186.52 588.03C1187.92 589.75 1188.8 591.44 1189.23 592.28C1190.76 595.28 1191.36 597.84 1191.52 598.6C1192.72 604.14 1191.6 608.52 1193.5 610.44C1194.25 611.21 1195.2 611.64 1195.2 611.64C1195.58 611.84 1196.49 612.23 1197.68 612.16C1198.12 612.13 1199.01 612.01 1199.92 611.42C1200.17 611.26 1201.13 610.61 1201.68 609.37C1201.96 608.74 1202.06 608.13 1201.99 606.25C1201.94 604.8 1201.9 603.74 1201.62 602.04C1201.43 600.84 1201.16 599.22 1200.48 597.18C1199.96 595.64 1199.17 593.73 1197.93 591.71C1197.46 590.95 1195.51 587.81 1191.78 584.76C1191.2 584.28 1189.91 583.26 1188.1 582.16C1187.18 581.6 1183.4 579.33 1177.44 577.77C1171.39 576.19 1166.51 576.27 1162.53 576.27C1155.4 576.27 1148.47 577.62 1141.77 580.32C1135.06 583.02 1130.09 586.91 1126.87 592C1123.81 597.24 1123.13 602.94 1124.83 609.1C1126.19 613.58 1129.2 617.39 1133.87 620.55C1138.54 623.71 1143.94 626.25 1150.05 628.18C1156.17 630.11 1162.23 631.96 1168.27 633.73C1174.29 635.51 1179.77 637.78 1184.7 640.55C1189.62 643.33 1192.85 646.64 1194.38 650.49C1195.74 654.19 1195.74 657.74 1194.38 661.12C1192.85 665.59 1189.62 669.26 1184.7 672.1C1179.77 674.95 1174.51 676.76 1168.9 677.53C1162.28 678.44 1157.04 677.03 1153.62 676.14C1150.41 675.3 1145.62 674.01 1140.33 670.45C1135.85 667.44 1132.88 664.06 1131.1 661.69C1129.32 662.41 1127.53 663.13 1125.75 663.84C1127.17 665.71 1128.84 667.46 1130.83 669.09C1137.87 674.87 1146.41 678.53 1156.43 680.07C1164.07 681.3 1171.62 681.19 1179.1 679.72C1186.57 678.26 1192.6 675.29 1197.19 670.82C1203.98 664.2 1206.19 655.56 1203.81 644.93C1203.3 642.16 1202.15 639.61 1200.37 637.3" fill="white"/>
<path d="M1111.1 598.24C1108.63 590.84 1102.69 585.13 1093.28 581.12C1084.18 577.11 1074.62 575.88 1064.59 577.42C1053.33 579.27 1044.31 584.36 1037.52 592.69C1025.42 607.55 1025.24 628.9 1025.26 631.33C1025.3 635.73 1025.56 667.93 1044.62 677.34C1055.92 682.92 1067.34 680.48 1067.34 680.48C1069.5 680.01 1071.25 679.4 1072.44 678.92C1072.33 678.03 1072.22 677.14 1072.11 676.25C1069.59 676.9 1061.7 678.6 1054.03 674.41C1049.87 672.14 1047.54 669.11 1045.96 667.01C1040.03 659.12 1039.04 650.38 1038.92 645.69C1042 641.22 1047.25 637.67 1054.65 635.05C1058.82 633.51 1064.83 631.89 1072.7 630.19C1083.49 628.03 1090.67 626.34 1094.22 625.1C1101.62 622.63 1106.71 619.39 1109.49 615.38C1111.49 612.45 1112.5 609.13 1112.5 605.43C1112.5 602.97 1112.04 600.57 1111.11 598.26M1096.99 614.44C1094.98 617.53 1090.82 620.15 1084.5 622.3C1082.95 622.76 1076.4 624.39 1064.83 627.16C1052.18 630.4 1043.46 634.41 1038.69 639.19V632.48C1038.69 611.35 1043.7 596.23 1053.73 587.13C1057.58 583.59 1062.02 581.31 1067.03 580.31C1072.04 579.31 1077.02 579.73 1081.95 581.58C1087.2 583.74 1091.36 587.13 1094.44 591.76C1097.53 596.39 1099.07 601.63 1099.07 607.49C1099.07 610.11 1098.37 612.43 1096.99 614.43" fill="white"/>
<path d="M749.49 674.05V727.63H736.15V609.2C736.15 598.43 736.15 587.65 736.13 576.88C740.56 576.9 744.99 576.92 749.42 576.95C749.44 579.96 749.46 582.97 749.48 585.98C755.61 581.54 762.82 578.7 771.1 577.47C779.37 576.24 787.11 576.93 794.32 579.54C804.13 583.07 811.34 589.12 815.94 597.71C820.55 606.29 822.84 616.18 822.84 627.37C822.68 639.18 820.31 649.64 815.71 658.76C811.11 667.88 803.83 674.44 793.87 678.42C786.97 681.18 779.42 682.18 771.22 681.41C763.02 680.64 755.78 678.19 749.49 674.05ZM749.49 610.81V652.43C749.64 657.95 751.47 662.93 755.01 667.37C758.84 672.43 763.78 675.81 769.84 677.49C775.9 679.18 781.84 678.87 787.66 676.57C794.1 673.66 799.16 668.44 802.84 660.93C807.28 652.04 809.51 640.47 809.51 626.21C809.51 609.5 805.6 597.01 797.79 588.73C791.35 581.83 783.45 579.07 774.1 580.45C767.05 581.53 761.22 584.74 756.63 590.11C752.02 595.48 749.65 601.76 749.5 608.97V610.81H749.49Z" fill="white"/>
<path d="M295.88 581.35V540.07H308.82V576.82H337.4V581.35H308.82V640.33C308.82 653.64 310.78 663.01 314.71 668.46C319.7 675.57 326.81 678.14 336.03 676.17L337.16 675.94V678.66L336.48 678.89C335.26 679.35 334.02 679.72 332.74 680.03C331.45 680.33 330.2 680.48 328.99 680.48C318.1 681.54 309.4 677.61 302.91 668.69C299.88 664.46 297.96 660.26 297.13 656.1C296.3 651.94 295.88 646.69 295.88 640.33V581.35Z" fill="white"/>
<path d="M419.11 660.6C416.35 663.97 413.13 667.07 409.46 669.91C405.78 672.75 401.76 675.16 397.39 677.15C393.03 679.14 388.77 680.29 384.64 680.6C373.61 681.67 364.87 677.69 358.44 668.65C355.37 664.36 353.38 660.11 352.46 655.89C351.54 651.68 351.08 646.35 351.08 639.91V576.94H364.41V639.91C364.41 651.56 366.32 660.06 370.16 665.43C372.46 668.65 375.37 671.02 378.89 672.55C384.87 675 391.53 674.47 398.89 670.94C406.56 667.42 413.29 661.52 419.12 653.25V576.94H432.45V680.83H419.12V660.61L419.11 660.6Z" fill="white"/>
<path d="M518.93 584.65V521.38H532.13V680.7H518.93V671.83C512.71 676.23 505.54 679.03 497.42 680.25C489.3 681.46 481.68 680.78 474.54 678.2C464.83 674.71 457.66 668.72 453.03 660.22C448.4 651.72 446.16 641.94 446.31 630.86C446.46 619.18 448.81 608.82 453.36 599.79C457.92 590.76 465.12 584.28 474.98 580.33C481.81 577.6 489.29 576.62 497.41 577.38C505.52 578.14 512.69 580.56 518.92 584.66M518.93 647.47V606.05C518.78 600.59 516.96 595.66 513.46 591.25C509.67 586.4 504.77 583.1 498.78 581.35C492.78 579.61 486.9 579.87 481.14 582.15C474.76 585.03 469.68 590.27 465.88 597.85C461.63 606.65 459.51 618.03 459.51 631.99C459.51 648.53 463.3 660.9 470.89 669.09C477.41 676.07 485.3 678.8 494.56 677.28C501.53 676.22 507.31 673.03 511.86 667.72C516.42 662.41 518.76 656.19 518.92 649.06V647.46L518.93 647.47Z" fill="white"/>
<path d="M558.22 576.88H545.8V680.83H558.22V576.88Z" fill="white"/>
<path d="M568.79 640.52C567.56 628.73 568.18 618.25 570.63 609.06C572.62 601.11 576.21 594.44 581.42 589.09C586.62 583.73 593.13 580.13 600.94 578.3C604.46 577.23 608.13 576.77 611.95 576.92H614.25C617.62 576.77 620.83 577.15 623.89 578.07C632.31 579.9 639.24 583.66 644.68 589.32C650.11 594.98 653.82 602.1 655.81 610.67C658.1 620.17 658.49 630.57 656.96 641.9C656.35 646.8 655.16 651.31 653.4 655.45C651.64 659.58 649.42 663.34 646.74 666.7C644.06 670.07 640.77 672.9 636.87 675.2C632.97 677.49 628.64 679.18 623.89 680.25C620.83 681.02 617.62 681.4 614.25 681.4H611.95C608.13 681.4 604.46 680.94 600.94 680.02C591.6 677.73 584.21 673.06 578.77 666.01C573.34 658.97 570.01 650.47 568.78 640.52M591.75 591.84C585.47 600.57 582.11 612.97 581.65 629.04C582.11 645.27 585.48 657.67 591.75 666.24C596.95 673.59 603.54 677.57 611.5 678.18H614.49C622.6 677.57 629.26 673.59 634.46 666.24C640.59 657.67 643.88 645.27 644.34 629.04C643.88 612.97 640.59 600.57 634.46 591.84C629.26 584.65 622.6 580.74 614.49 580.13C614.03 579.98 613.64 579.9 613.34 579.9C612.88 579.9 612.26 579.98 611.5 580.13C603.54 580.75 596.96 584.65 591.75 591.84Z" fill="white"/>
<path d="M846.171 576.9H833.971V680.83H846.171V576.9Z" fill="white"/>
<path d="M860.45 680.83V606.44V605.53V521.38H872.65V680.83H860.45Z" fill="white"/>
<path d="M958.561 667.69C951.681 675.33 941.151 679.76 926.931 680.98C919.601 681.59 912.45 680.9 905.51 678.92C898.56 676.94 893.251 673.5 889.581 668.61C886.681 664.64 885.23 660.06 885.23 654.86C885.23 648.29 887.211 643.29 891.191 639.85C895.171 636.41 900.661 633.71 907.691 631.71C910.281 630.95 916.091 629.65 925.101 627.81C928.921 626.89 931.901 626.17 934.041 625.63C936.181 625.09 939.08 624.25 942.75 623.11C946.42 621.96 949.551 620.51 952.141 618.76C954.731 617.01 956.801 614.98 958.331 612.69C957.571 603.98 955.011 596.8 950.651 591.15C946.291 585.5 941.291 582.02 935.641 580.72C929.981 579.43 924.331 579.46 918.681 580.83C913.021 582.21 908.281 585.53 904.471 590.8C900.641 596.07 898.74 602.53 898.74 610.17C898.74 613.23 897.591 615.29 895.301 616.36C893.011 617.43 890.751 617.32 888.541 616.02C886.321 614.72 885.371 612.78 885.681 610.18C885.681 606.51 886.29 603.08 887.51 599.87C890.72 592.39 896.531 586.5 904.931 582.22C913.331 577.79 922.19 575.96 931.51 576.72C941.59 577.33 950.071 580.84 956.951 587.26C964.891 594.59 969.711 604.75 971.391 617.74C971.541 618.96 971.701 621.1 971.851 624.16V680.53H958.561V667.7V667.69ZM958.561 632.17C958.711 628.35 958.711 624.23 958.561 619.79C954.131 624.68 944.961 628.65 931.061 631.71C920.061 634.16 912.95 635.99 909.75 637.21C902.26 640.27 898.521 646.23 898.521 655.09C898.521 662.73 901.041 668.61 906.081 672.74C912.341 677.48 919.98 679.08 929 677.55C938.01 676.03 944.811 672.2 949.391 666.09C955.041 658.61 958.101 647.3 958.561 632.17Z" fill="white"/>
<path d="M985.521 581.54V540.26H998.461V577.01H1027.04V581.54H998.461V640.52C998.461 653.83 1000.42 663.2 1004.35 668.65C1009.34 675.76 1016.45 678.33 1025.67 676.36L1026.8 676.13V678.85L1026.12 679.08C1024.9 679.53 1023.66 679.91 1022.37 680.21C1021.09 680.51 1019.84 680.66 1018.63 680.66C1007.74 681.72 999.041 677.79 992.551 668.87C989.521 664.64 987.601 660.44 986.771 656.28C985.941 652.12 985.521 646.87 985.521 640.52V581.54Z" fill="white"/>
<path d="M276.03 639.09C272 634.37 265.12 629.46 255.39 624.34C253.62 623.46 250.43 621.91 245.81 619.69C241.19 617.48 237.7 615.69 235.34 614.31C233.51 613.24 223.02 606.09 223.69 597.06C224.32 588.7 234.31 582.1 241.37 581.29C243.79 581.01 249.76 580.96 253.08 580.98C255.15 580.99 256.85 581.04 258 581.08C258.04 579.64 258.07 578.21 258.1 576.78C257.51 576.78 256.63 576.8 255.55 576.81C249.24 576.85 247.69 576.7 245.33 576.78C242.99 576.86 239.68 576.98 235.86 578.21C231.11 579.74 227.99 582.22 226.05 583.79C223.51 585.85 219.61 589.08 217.55 594.32C216.97 595.81 216.55 597.36 216.32 598.98C215.73 603.21 216.47 607.16 218.53 610.85C220.59 614.54 223.54 617.76 227.38 620.51C230.82 623.07 237.16 626.61 246.4 631.13C252.01 633.98 256.13 636.19 258.79 637.77C263.02 640.23 266.31 642.54 268.67 644.7C272.7 648.53 274.57 652.81 274.27 657.53C273.98 661.66 272.28 665.42 269.18 668.81C266.09 672.2 262.47 674.74 258.35 676.41C253.33 678.47 248.32 679.02 243.31 678.03C238.29 677.05 233.77 674.74 229.74 671.1C224.73 666.29 222.22 659.35 222.22 650.31C222.22 648.05 221.28 646.52 219.42 645.74C217.85 644.95 216.27 645.03 214.7 645.96C213.13 646.89 212.44 648.34 212.64 650.31C212.64 656.99 214.39 662.7 217.88 667.41C221.37 672.13 226.26 675.72 232.55 678.17C237.56 680.04 242.79 680.92 248.25 680.83C253.7 680.73 258.89 679.6 263.81 677.44C268.23 675.57 272.07 672.97 275.31 669.62C278.55 666.28 280.62 662.49 281.5 658.27C282.98 651.59 281.16 645.2 276.05 639.1" fill="white"/>
</svg>
