<svg width="1391" height="466" viewBox="0 0 1391 466" fill="none" xmlns="http://www.w3.org/2000/svg">
<path d="M332.75 289.59C312.546 324.677 274.758 348.354 231.368 348.354C166.743 348.354 114.364 295.967 114.364 231.356C114.364 166.744 166.753 114.358 231.368 114.358C272.433 114.358 308.494 135.562 329.375 167.568L426.479 107.362C385.413 42.888 313.478 0 231.368 0C103.59 0 0 103.585 0 231.356C0 359.127 103.59 462.712 231.368 462.712C315.451 462.712 388.838 417.714 429.344 350.63L332.75 289.59Z" fill="white"/>
<path d="M900.93 0H791.06V462.712H900.93V0Z" fill="white"/>
<path d="M586.098 355.398V0H476.228V355.398V462.712V465.263H736.12V355.398H586.098Z" fill="white"/>
<path d="M1390.74 231.356V50.4824L1360.22 72.0687C1318.12 27.7285 1258.74 0 1192.76 0C1064.98 0 961.394 103.585 961.394 231.356C961.394 359.127 1064.98 462.712 1192.76 462.712C1276.84 462.712 1350.23 417.714 1390.74 350.63L1294.14 289.59C1273.94 324.677 1236.15 348.354 1192.76 348.354C1128.14 348.354 1075.76 295.967 1075.76 231.356C1075.76 166.744 1128.15 114.358 1192.76 114.358C1220.04 114.358 1245 123.856 1264.88 139.526L1234.78 160.818L1390.74 231.356Z" fill="white"/>
</svg>
