<svg width="391" height="59" viewBox="0 0 391 59" fill="none" xmlns="http://www.w3.org/2000/svg">
<path d="M0 44.9204C2.93 44.9204 4.82 43.9404 5.74 39.5504L12.21 9.04044C13.13 4.65044 11.05 3.61043 8.12 3.61043V2.94043H21.61V3.61043C18.68 3.61043 16.79 4.65044 15.87 9.04044L12.76 23.7504H35.09L38.2 9.04044C39.12 4.65044 37.04 3.61043 34.11 3.61043V2.94043H47.53V3.61043C44.66 3.61043 42.71 4.65044 41.79 9.04044L35.38 39.5504C34.46 43.9404 36.54 44.9204 39.41 44.9204V45.6504H25.99V44.9204C28.86 44.9204 30.81 43.9404 31.73 39.5504L34.84 24.7804H12.51L9.4 39.5504C8.49 43.9404 10.56 44.9204 13.43 44.9204V45.6504H0V44.9204Z" fill="white"/>
<path d="M41.0202 29.3601C43.2202 19.7801 50.9102 14.3501 57.4302 14.3501C63.9502 14.3501 68.7802 21.1801 66.5802 30.8901C64.3802 40.5901 56.8202 46.1501 50.2902 46.1501C43.3302 46.1501 38.8202 39.1301 41.0102 29.3701L41.0202 29.3601ZM50.9602 45.2301C55.7202 45.1701 60.9102 39.4901 62.8602 29.9101C64.8102 20.4501 62.0102 15.1401 56.8202 15.2601C51.8202 15.3201 46.5102 21.2401 44.6202 30.5201C42.7302 40.1001 45.8402 45.2901 50.9702 45.2301H50.9602Z" fill="white"/>
<path d="M70.8101 3.6703L70.75 3.00031C73.43 2.69031 75.8101 2.21031 78.8701 0.0703125L79.3 0.440308L78.2001 5.75031L72.0401 34.8603C70.8801 40.2903 69.6001 43.8303 71.5501 43.8303C73.2601 43.8303 75.88 39.9903 77.41 33.4603L77.9001 33.5803C75.9501 43.1003 71.9801 46.4603 69.0501 46.0303C66.3701 45.5403 66.98 42.0603 68.14 36.8203L74.18 8.32031C75.1 4.11031 73.57 3.68031 70.82 3.68031L70.8101 3.6703Z" fill="white"/>
<path d="M98.57 46.04C98.82 44.91 99.09 43.8 99.39 42.69C99.94 40.07 100.1 38.46 100.87 34.79L107.03 5.68001L108.13 0.37001L107.7 0C104.65 2.14 102.33 2.62001 99.58 2.93001L99.64 3.66C102.39 3.66 103.91 4.09001 103.06 8.24001L101.29 16.91C100.19 15.57 98.24 14.47 95.68 14.47C87.44 14.47 79.57 22.28 77.43 32.35C75.84 39.86 77.98 46.26 83.72 46.26C89.46 46.26 95.19 38.57 98.3 31.13L97.02 36.81C95.86 42.12 95.19 45.54 97.87 46.02C98.09 46.05 98.33 46.05 98.56 46.04H98.57ZM85.24 44.01C80.91 44.01 78.77 38.15 81.46 29.55C84.88 18.99 91.16 15.33 94.95 15.33C98.74 15.33 100.44 18.26 99.34 24.48C97.57 34.24 90.37 44.01 85.24 44.01Z" fill="white"/>
<path d="M107.76 44.3604C107.83 43.8904 107.88 43.4904 107.9 43.3904C108.12 41.9804 108.23 40.5904 108.54 39.1904C108.85 37.7904 109.2 36.3004 109.51 34.8504L112.56 20.0804L113.72 14.7704L113.23 14.4004C111.92 15.3204 110.75 15.9204 109.63 16.3404C109.63 16.3604 109.63 16.3704 109.63 16.3904C109.55 19.0004 108.79 21.5304 108.24 24.0604C107.2 28.8304 106.23 33.6204 105.26 38.4004C104.88 40.2804 103.37 45.5404 106.52 46.0004C106.81 46.0404 107.11 46.0304 107.41 46.0004C107.5 45.9904 107.65 45.0904 107.76 44.3504V44.3604Z" fill="white"/>
<path d="M114.21 2.57031C112.5 2.57031 111.16 3.79031 111.04 5.38031C110.92 7.15031 111.89 8.43031 113.66 8.43031C115.43 8.43031 116.65 7.15031 116.83 5.38031C116.95 3.79031 115.91 2.57031 114.21 2.57031Z" fill="white"/>
<path d="M118.54 22.6502C119.46 18.5002 117.93 18.0702 115.18 18.0702L115.12 17.3402C117.87 17.0302 120.18 16.5502 123.24 14.4102L123.73 14.7802L122.57 20.0902L119.27 35.5302C123.72 22.6502 130.68 14.4202 136.6 14.4202C141.24 14.4202 142.4 18.3302 140.32 25.5302L137.64 34.9902C136.11 40.3602 134.65 43.8402 136.6 43.9002C138.25 44.0202 141.18 40.3602 143.07 33.9502L143.56 34.0702C141 43.4702 136.79 46.5802 133.92 45.9102C131.3 45.3002 132.15 41.8801 133.61 36.7001L136.6 26.4502C138.86 18.8202 137.21 16.6302 134.83 16.6302C129.46 16.6302 121.28 28.2202 117.13 45.6802H113.71L118.53 22.6702L118.54 22.6502Z" fill="white"/>
<path d="M137.18 49.9905C137.18 46.3905 141.33 46.2105 145.85 45.8405C141.88 44.3805 140.6 38.7605 141.94 32.3505C144.08 22.2805 151.89 14.4705 160.19 14.4705C162.87 14.4705 164.58 15.5105 165.74 16.4805L169.1 13.9805L169.65 14.2905L162.75 45.6605C160.86 54.2005 155.49 58.4705 148.96 58.4705C141.52 58.4705 137.18 53.1605 137.18 49.9905ZM148.77 57.5505C154.51 57.5505 157.68 52.3605 159.27 45.6505L162.87 30.4605C159.7 38.3305 153.78 46.1405 148.29 46.2605C142.86 46.3805 140.85 47.4805 140.66 49.8005C140.48 53.3405 144.2 57.5505 148.78 57.5505H148.77ZM149.75 44.0105C154.94 44.0105 162.32 33.4505 164.09 23.4505C165 18.1405 163.05 15.3305 159.45 15.3305C155.67 15.3305 149.44 18.9305 146.03 29.5505C143.28 38.1505 145.42 44.0105 149.75 44.0105Z" fill="white"/>
<path d="M179.85 44.8604C182.29 44.8604 184.12 43.7004 184.12 39.4904V9.10043C184.12 4.89043 182.35 3.73044 179.85 3.73044V2.94043H209.75L211.52 15.5704L210.79 15.7504C209.39 7.88043 205.6 3.97043 199.44 3.97043H191.08V24.2304H197.73C201.76 24.2304 203.59 22.4604 203.59 17.1504H204.38V32.4704H203.59C203.59 27.1604 201.76 25.2704 197.67 25.2704H191.08V39.4904C191.08 43.7004 193.22 44.8604 196.21 44.8604V45.6504H179.86V44.8604H179.85Z" fill="white"/>
<path d="M228.66 39.8001L228.48 38.4601C227.75 42.3001 224.09 46.2701 218.47 46.2701C213.28 46.2701 209.68 42.9101 209.68 38.4001C209.68 34.3101 212.61 31.3801 218.04 30.8901L228.07 30.1601L227.64 27.0501C226.91 21.5001 223.65 17.8401 219.01 17.8401C215.41 17.8401 212.72 20.1001 211.38 23.3301L210.59 23.1501C211.75 18.8201 216.9 14.1201 223.12 14.1201C229.34 14.1201 233.19 18.1501 234.1 25.4101L235.11 38.9001C235.48 41.5201 236.51 42.3201 237.55 42.3201C238.4 42.3201 239.01 41.5901 239.2 40.5501L239.93 40.6101C239.81 43.2301 237.92 46.1601 234.5 46.1601C231.08 46.1601 229.13 43.6601 228.64 39.8101L228.66 39.8001ZM221.71 42.6701C225.62 42.6701 228 39.8601 228.3 37.0601L227.45 31.0801L221.47 31.5701C217.75 31.9401 215.86 34.1301 215.86 37.0601C215.86 39.9901 218 42.6701 221.72 42.6701H221.71Z" fill="white"/>
<path d="M279.62 44.8601C282.61 44.8601 284.75 43.7001 284.2 39.5501L282.25 25.5801C281.52 20.4501 279.38 17.7701 275.9 17.7701C272.42 17.7701 270.29 20.6401 269.86 23.8701C269.92 24.4801 269.98 25.1501 269.98 25.8201V39.4901C269.98 43.7001 271.81 44.8601 274.25 44.8601V45.6501H259.36V44.8601C261.74 44.8601 263.45 43.7001 263.45 39.4901V26.8601C263.45 20.9401 261.07 17.7101 257.04 17.7101C253.68 17.7101 251.12 20.5201 250.75 23.4501V39.5001C250.75 43.7101 252.46 44.8701 254.84 44.8701V45.6601H239.89V44.8701C242.33 44.8701 244.16 43.7101 244.16 39.5001V21.3801C244.16 18.3901 242.94 17.4101 240.13 17.3501V16.5601C243.36 16.3201 247.03 15.6501 250.2 14.1801L250.75 14.4901V21.0201C251.97 17.4801 255.45 14.1201 259.96 14.1201C264.47 14.1201 268.26 16.8701 269.54 21.9301C270.52 17.8401 273.93 14.1201 278.88 14.1201C284.13 14.1201 287.73 17.4201 288.89 25.4101L290.96 39.5701C291.57 43.7201 293.34 44.8801 295.84 44.8801V45.6701H279.61V44.8801L279.62 44.8601Z" fill="white"/>
<path d="M301.85 0.810059C299.28 0.810059 297.58 2.58005 297.58 5.02005C297.58 7.65005 299.28 9.48006 301.85 9.48006C304.42 9.48006 306.19 7.65005 306.19 5.02005C306.19 2.58005 304.48 0.810059 301.85 0.810059ZM309.62 44.8401C307.3 44.7301 305.7 43.4901 305.7 39.4901V14.47L305.16 14.17C303.24 15.06 301.14 15.6501 299.07 16.0201V20.5C299.1 20.76 299.12 21.05 299.12 21.36V39.4901C299.12 43.4001 297.54 44.68 295.35 44.83C295.19 44.85 295.02 44.85 294.85 44.85V45.64H309.98V44.85C309.86 44.85 309.74 44.85 309.62 44.83V44.8401Z" fill="white"/>
<path d="M309.27 44.86C311.71 44.86 313.54 43.7001 313.54 39.4901L313.72 7.76006C313.72 4.77006 312.5 3.73006 309.69 3.73006V2.94005C312.99 2.70005 316.65 2.03006 319.76 0.560059L320.31 0.870056V39.5001C320.31 43.7101 322.14 44.8701 324.58 44.8701V45.6601H309.26V44.8701L309.27 44.86Z" fill="white"/>
<path d="M330.2 0.810059C327.63 0.810059 325.93 2.58005 325.93 5.02005C325.93 7.65005 327.63 9.48006 330.2 9.48006C332.77 9.48006 334.54 7.65005 334.54 5.02005C334.54 2.58005 332.83 0.810059 330.2 0.810059ZM334.04 39.4901V14.47L333.5 14.17C331.59 15.05 329.51 15.6401 327.45 16.0201V39.5001C327.45 43.2901 325.97 44.61 323.89 44.83C323.66 44.86 323.43 44.8701 323.19 44.8701V45.6601H338.32V44.8701C335.82 44.8701 334.04 43.71 334.04 39.51V39.4901Z" fill="white"/>
<path d="M337.32 30.3404C337.32 21.0604 343.97 14.1104 352.15 14.1104C359.41 14.1104 363.62 19.5404 363.62 25.8304H343.79C343.73 26.2004 343.73 26.5004 343.73 26.8704C343.73 35.5404 348 41.3904 354.78 41.3304C359.84 41.3304 363.2 37.9104 364.18 33.3404L365.03 33.4604C363.93 40.7204 358.62 46.2704 351.42 46.2704C342.88 46.2704 337.32 39.0104 337.32 30.3404ZM354.53 24.7904C356.36 24.7904 357.03 23.9404 357.03 22.0404C357.03 19.1704 355.57 15.0204 351.66 15.0204C347.75 15.0204 344.58 19.4703 343.85 24.7803H354.53V24.7904Z" fill="white"/>
<path d="M366.68 33.5102L367.47 33.3302C368.87 37.5402 372.11 45.1702 378.94 45.2302C382.85 45.2302 385.16 42.9102 385.22 39.9802C385.22 36.9902 383.27 35.2202 378.39 33.5102L374.73 32.0502C369.85 30.2202 366.92 27.4702 366.98 22.8402C367.1 17.8402 371.8 14.1102 377.78 14.1702C383.46 14.2302 385.96 17.8302 387.18 13.8002L388.03 13.7402L388.82 25.7002L387.97 25.8202C386.75 21.6102 382.97 15.1402 377.66 15.0802C374.24 15.0202 372.11 17.3402 372.11 20.0802C372.11 22.8202 374.18 24.7202 378.52 26.2402L382.12 27.7002C387.67 29.7702 390.36 32.4602 390.24 36.7902C390.12 42.8902 384.69 46.2502 379.26 46.1902C372.91 46.0702 370.17 42.5302 368.64 46.3102L367.72 46.3702L366.68 33.4902V33.5102Z" fill="white"/>
</svg>
